<svg width="592" height="116" xmlns="http://www.w3.org/2000/svg">
 <style type="text/css">.st0{fill:#009ADD;}
	.st1{fill:#111111;}</style>

 <g>
  <title>background</title>
  <rect fill="none" id="canvas_background" height="118" width="594" y="-1" x="-1"/>
 </g>
 <g>
  <title>Layer 1</title>
  <g id="svg_1">
   <g id="svg_2">
    <g id="svg_3">
     <path id="svg_4" d="m386.6,48.5c-1.4,1.6 -3.9,3.3 -8.2,3.3c-6.5,0 -11.5,-4.6 -11.5,-11.6c0,-7 5,-11.6 11.5,-11.6c4.2,0 6.7,1.8 8,3l-1.3,2.5c-0.9,-1.1 -3.4,-2.7 -6.5,-2.7c-4.8,0 -8.4,3.5 -8.4,8.8c0,5.3 3.5,8.8 8.4,8.8c3,0 5.2,-1.1 6.7,-2.7l1.3,2.2z" class="st0"/>
     <path id="svg_5" d="m396.3,51.8c-4.6,0 -8.2,-3.2 -8.2,-8c0,-4.8 3.6,-8.1 8.2,-8.1c4.6,0 8.2,3.3 8.2,8.1c0,4.8 -3.6,8 -8.2,8zm0,-13.6c-3.1,0 -5,2.4 -5,5.4c0,3.1 1.9,5.5 5,5.5c3.1,0 5,-2.4 5,-5.5c0,-3 -1.9,-5.4 -5,-5.4z" class="st0"/>
     <path id="svg_6" d="m421.2,51.4l-3.2,0l0,-8.6c0,-2.6 -0.5,-4.6 -3.2,-4.6c-2.9,0 -4,2.4 -4,5.4l0,7.8l-3.1,0l0,-15.4l3.1,0l0,2.4l0.1,0c0.8,-1.5 2.5,-2.7 4.7,-2.7c4.4,0 5.5,2.9 5.5,6.6l0,9.1l0.1,0z" class="st0"/>
     <path id="svg_7" d="m434.2,50.4c-1.1,0.9 -2.5,1.4 -4.3,1.4c-2.6,0 -4.7,-1.1 -6,-2.8l1.5,-1.8c1.2,1.4 3.1,2.2 4.6,2.2c1.4,0 3,-0.5 3,-2.2c0,-1.7 -2.4,-2.2 -3.5,-2.6c-1,-0.4 -1.4,-0.4 -2.1,-0.8c-1,-0.5 -2.4,-1.5 -2.4,-3.7c0,-2.9 2.5,-4.4 5.2,-4.4c2.7,0 4.3,1 5.3,2l-1.3,1.9c-0.9,-0.9 -2.4,-1.7 -3.9,-1.7c-1.5,0 -2.5,0.6 -2.5,1.9c0,1.3 1.5,1.8 3,2.3c0.8,0.3 1.4,0.5 2.1,0.7c0.6,0.3 1.3,0.7 1.8,1.1c0.6,0.6 1.2,1.5 1.2,2.9c-0.2,1.6 -0.7,2.8 -1.7,3.6z" class="st0"/>
     <path id="svg_8" d="m452.8,44.5l-11.9,0c0.2,3.1 2.1,4.9 5,4.9c2.9,0 4.8,-1.6 5.1,-1.8l1.3,1.8c-0.2,0.2 -2.2,2.4 -6.8,2.4c-4.6,0 -7.7,-3.2 -7.7,-8.1c0,-4.9 3.5,-8 7.8,-8c4.3,0 7.3,3.1 7.3,7.4c0,0.6 -0.1,1.4 -0.1,1.4zm-2.8,-2.1c0,-1.7 -1.3,-4.4 -4.5,-4.4c-3.1,0 -4.5,2.6 -4.6,4.4l9.1,0z" class="st0"/>
     <path id="svg_9" d="m457.7,32.8c-1.2,0 -2,-0.8 -2,-1.9c0,-1.1 0.8,-1.9 2,-1.9c1.2,0 2,0.8 2,1.9c0,1.1 -0.8,1.9 -2,1.9zm1.6,18.6l-3.1,0l0,-15.4l3.1,0l0,15.4z" class="st0"/>
     <path id="svg_10" d="m466.9,51.4l-3.1,0l0,-22.4l3.1,0l0,22.4z" class="st0"/>
     <path id="svg_11" d="m492.8,51.4l-3,0l0,-2.4l-0.1,0c-1.3,1.9 -3.2,2.8 -5.4,2.8c-4.6,0 -7.5,-3.5 -7.5,-8.1c0,-4.6 2.9,-8 7.5,-8c2.5,0 4.3,1.1 5.4,2.7l0.1,0l0,-9.4l3.1,0l0,22.4l-0.1,0zm-7.9,-13.2c-3.1,0 -4.9,2.3 -4.9,5.4c0,3.1 1.8,5.5 4.9,5.5c3.1,0 4.9,-2.4 4.9,-5.5c0,-3 -1.8,-5.4 -4.9,-5.4z" class="st0"/>
     <path id="svg_12" d="m511.3,44.5l-11.9,0c0.2,3.1 2.1,4.9 5,4.9c2.9,0 4.8,-1.6 5.1,-1.8l1.3,1.8c-0.2,0.2 -2.2,2.4 -6.8,2.4c-4.6,0 -7.7,-3.2 -7.7,-8.1c0,-4.9 3.5,-8 7.8,-8c4.3,0 7.3,3.1 7.3,7.4c0,0.6 -0.1,1.4 -0.1,1.4zm-2.8,-2.1c0,-1.7 -1.3,-4.4 -4.5,-4.4c-3.1,0 -4.5,2.6 -4.6,4.4l9.1,0z" class="st0"/>
     <path id="svg_13" d="m523.3,50.4c-1.1,0.9 -2.5,1.4 -4.3,1.4c-2.6,0 -4.7,-1.1 -6,-2.8l1.5,-1.8c1.2,1.4 3.1,2.2 4.6,2.2c1.4,0 3,-0.5 3,-2.2c0,-1.7 -2.4,-2.2 -3.5,-2.6c-1,-0.4 -1.4,-0.4 -2.1,-0.8c-1,-0.5 -2.4,-1.5 -2.4,-3.7c0,-2.9 2.5,-4.4 5.2,-4.4c2.7,0 4.3,1 5.3,2l-1.3,1.9c-0.9,-0.9 -2.4,-1.7 -3.9,-1.7c-1.5,0 -2.5,0.6 -2.5,1.9c0,1.3 1.5,1.8 3,2.3c0.8,0.3 1.4,0.5 2.1,0.7c0.6,0.3 1.3,0.7 1.8,1.1c0.6,0.6 1.2,1.5 1.2,2.9c-0.1,1.6 -0.7,2.8 -1.7,3.6z" class="st0"/>
     <path id="svg_14" d="m546.5,51.4l-3,0l0,-2c-0.6,0.7 -2.1,2.3 -4.9,2.3c-2.9,0 -5.3,-1.8 -5.3,-4.8c0,-3 2.5,-4.6 6.1,-4.7l4.1,-0.2l0,-0.6c0,-2.3 -1.6,-3.5 -3.8,-3.5c-2.2,0 -4.1,1 -4.7,1.3l-0.9,-2.1c1.1,-0.7 3.2,-1.6 5.8,-1.6c2.6,0 4.1,0.7 5.1,1.8c1,1.1 1.7,2.4 1.7,5l0,9.1l-0.2,0zm-3.1,-7.4l-3.6,0.2c-2.5,0.1 -3.5,1.2 -3.5,2.7c0,1.5 1.1,2.7 3.2,2.7c2,0 3.4,-1.4 3.9,-2.2l0,-3.4z" class="st0"/>
     <path id="svg_15" d="m558.9,38.9l-0.1,0c-0.3,-0.1 -0.8,-0.3 -1.7,-0.3c-1.4,0 -2.2,0.9 -2.5,1.3c-0.3,0.4 -0.9,1.6 -0.9,3.9l0,7.7l-3.1,0l0,-15.5l3.1,0l0,2.4l0.1,0c0.7,-1.8 2.1,-2.7 3.8,-2.7c1,0 1.6,0.3 1.6,0.3l-0.3,2.9z" class="st0"/>
     <path id="svg_16" d="m568.9,51.3c0,0 -1.2,0.5 -2.8,0.5c-1.6,0 -2.6,-0.6 -3.3,-1.6c-0.6,-1 -0.8,-2.2 -0.8,-4.6l0,-7.1l-2.3,0l0,-2.5l2.3,0l0,-4.6l3.1,0l0,4.6l3.7,0l0,2.5l-3.7,0l0,7c0,1.3 0,2.2 0.4,2.8c0.3,0.5 0.7,0.8 1.6,0.8c0.9,0 1.6,-0.4 1.6,-0.4l0.2,2.6z" class="st0"/>
     <path id="svg_17" d="m580.3,50.4c-1.1,0.9 -2.5,1.4 -4.3,1.4c-2.6,0 -4.7,-1.1 -6,-2.8l1.5,-1.8c1.2,1.4 3.1,2.2 4.6,2.2c1.4,0 3,-0.5 3,-2.2c0,-1.7 -2.4,-2.2 -3.5,-2.6c-1,-0.4 -1.4,-0.4 -2.1,-0.8c-1,-0.5 -2.4,-1.5 -2.4,-3.7c0,-2.9 2.5,-4.4 5.2,-4.4c2.7,0 4.3,1 5.3,2l-1.3,1.9c-0.9,-0.9 -2.4,-1.7 -3.9,-1.7c-1.5,0 -2.5,0.6 -2.5,1.9c0,1.3 1.5,1.8 3,2.3c0.8,0.3 1.4,0.5 2.1,0.7c0.6,0.3 1.3,0.7 1.8,1.1c0.6,0.6 1.2,1.5 1.2,2.9c-0.1,1.6 -0.7,2.8 -1.7,3.6z" class="st0"/>
     <path id="svg_18" d="m382.8,88l-3,0l0,-2.5l-0.1,0c-1.3,1.9 -3.2,2.8 -5.4,2.8c-4.6,0 -7.5,-3.5 -7.5,-8.1c0,-4.6 2.9,-8 7.5,-8c2.5,0 4.3,1.1 5.4,2.7l0.1,0l0,-9.4l3.1,0l0,22.5l-0.1,0zm-7.9,-13.2c-3.1,0 -4.9,2.3 -4.9,5.4c0,3.1 1.8,5.5 4.9,5.5c3.1,0 4.9,-2.4 4.9,-5.5c0,-3 -1.8,-5.4 -4.9,-5.4z" class="st0"/>
     <path id="svg_19" d="m400.4,88l-3,0l0,-2.2c-0.8,1.5 -2.6,2.6 -4.8,2.6c-2.2,0 -3.5,-0.8 -4.3,-1.8c-0.8,-1 -1.1,-2.6 -1.1,-4.8l0,-9.3l3.1,0l0,9.1c0,2.1 0.5,4.1 3.2,4.1c2.7,0 3.8,-2.3 3.8,-4.9l0,-8.3l3.1,0l0,15.5z" class="st0"/>
     <path id="svg_20" d="m429.9,85.1c-1.4,1.6 -3.9,3.3 -8.2,3.3c-6.5,0 -11.5,-4.6 -11.5,-11.6c0,-7 5,-11.6 11.5,-11.6c4.2,0 6.7,1.8 8,3l-1.3,2.5c-0.9,-1.1 -3.4,-2.7 -6.5,-2.7c-4.9,0 -8.4,3.5 -8.4,8.8c0,5.3 3.5,8.8 8.4,8.8c3,0 5.2,-1.1 6.7,-2.7l1.3,2.2z" class="st0"/>
     <path id="svg_21" d="m444.8,88l-3,0l0,-2c-0.6,0.7 -2.1,2.3 -4.9,2.3c-2.9,0 -5.3,-1.8 -5.3,-4.8c0,-3 2.5,-4.6 6.1,-4.7l4.1,-0.2l0,-0.6c0,-2.3 -1.6,-3.5 -3.8,-3.5c-2.2,0 -4.1,1 -4.7,1.3l-0.9,-2.1c1.1,-0.6 3.2,-1.6 5.8,-1.6c2.6,0 4.1,0.7 5.1,1.8c1,1.1 1.7,2.4 1.7,5l0,9.1l-0.2,0zm-3.1,-7.4l-3.6,0.2c-2.5,0.1 -3.5,1.2 -3.5,2.7c0,1.5 1.1,2.7 3.2,2.7c2,0 3.4,-1.4 3.9,-2.2l0,-3.4z" class="st0"/>
     <path id="svg_22" d="m462.3,88l-3.1,0l0,-8.6c0,-2.6 -0.5,-4.6 -3.2,-4.6c-2.9,0 -4,2.4 -4,5.4l0,7.8l-3.1,0l0,-15.5l3.1,0l0,2.4l0.1,0c0.8,-1.5 2.5,-2.7 4.7,-2.7c4.4,0 5.5,2.9 5.5,6.6l0,9.2z" class="st0"/>
     <path id="svg_23" d="m478.4,88l-3,0l0,-2c-0.6,0.7 -2.1,2.3 -4.9,2.3c-2.9,0 -5.3,-1.8 -5.3,-4.8c0,-3 2.5,-4.6 6.1,-4.7l4.1,-0.2l0,-0.6c0,-2.3 -1.6,-3.5 -3.8,-3.5s-4.1,1 -4.7,1.3l-0.9,-2.1c1.1,-0.6 3.2,-1.6 5.8,-1.6c2.6,0 4.1,0.7 5.1,1.8c1,1.1 1.7,2.4 1.7,5l0,9.1l-0.2,0zm-3.1,-7.4l-3.6,0.2c-2.5,0.1 -3.5,1.2 -3.5,2.7c0,1.5 1.1,2.7 3.2,2.7c2,0 3.4,-1.4 3.9,-2.2l0,-3.4z" class="st0"/>
     <path id="svg_24" d="m497.4,88l-3,0l0,-2.5l-0.1,0c-1.3,1.9 -3.2,2.8 -5.4,2.8c-4.6,0 -7.5,-3.5 -7.5,-8.1c0,-4.6 2.9,-8 7.5,-8c2.5,0 4.3,1.1 5.4,2.7l0.1,0l0,-9.4l3.1,0l0,22.5l-0.1,0zm-7.9,-13.2c-3.1,0 -4.9,2.3 -4.9,5.4c0,3.1 1.8,5.5 4.9,5.5c3.1,0 4.9,-2.4 4.9,-5.5c0,-3 -1.8,-5.4 -4.9,-5.4z" class="st0"/>
     <path id="svg_25" d="m513.9,88l-3,0l0,-2c-0.6,0.7 -2.1,2.3 -4.9,2.3c-2.9,0 -5.3,-1.8 -5.3,-4.8c0,-3 2.5,-4.6 6,-4.7l4.1,-0.2l0,-0.6c0,-2.3 -1.6,-3.5 -3.8,-3.5c-2.2,0 -4.1,1 -4.7,1.3l-0.9,-2.1c1.1,-0.6 3.2,-1.6 5.8,-1.6s4.1,0.7 5.1,1.8c1,1.1 1.7,2.4 1.7,5l0,9.1l-0.1,0zm-3.1,-7.4l-3.6,0.2c-2.5,0.1 -3.5,1.2 -3.5,2.7c0,1.5 1.1,2.7 3.2,2.7c2,0 3.4,-1.4 3.9,-2.2l0,-3.4z" class="st0"/>
    </g>
   </g>
   <g id="svg_26">
    <path id="svg_27" d="m144.3,48.5c-1.4,1.6 -3.9,3.3 -8.2,3.3c-6.5,0 -11.5,-4.6 -11.5,-11.6c0,-7 5,-11.6 11.5,-11.6c4.2,0 6.7,1.8 8,3l-1.3,2.5c-0.9,-1.1 -3.4,-2.7 -6.5,-2.7c-4.8,0 -8.4,3.5 -8.4,8.8c0,5.3 3.5,8.8 8.4,8.8c3,0 5.2,-1.1 6.7,-2.7l1.3,2.2z" class="st0"/>
    <path id="svg_28" d="m159.2,51.4l-3,0l0,-2c-0.6,0.7 -2.1,2.3 -4.9,2.3c-2.9,0 -5.3,-1.8 -5.3,-4.8c0,-3 2.5,-4.6 6.1,-4.7l4.1,-0.2l0,-0.6c0,-2.3 -1.6,-3.5 -3.8,-3.5c-2.2,0 -4.1,1 -4.7,1.3l-0.9,-2.1c1.1,-0.7 3.2,-1.6 5.8,-1.6c2.6,0 4.1,0.7 5.1,1.8c1,1.1 1.7,2.4 1.7,5l0,9.1l-0.2,0zm-3.1,-7.4l-3.6,0.2c-2.5,0.1 -3.5,1.2 -3.5,2.7c0,1.5 1.1,2.7 3.2,2.7c2,0 3.4,-1.4 3.9,-2.2l0,-3.4z" class="st0"/>
    <path id="svg_29" d="m176.6,51.4l-3.1,0l0,-8.6c0,-2.6 -0.5,-4.6 -3.2,-4.6c-2.9,0 -4,2.4 -4,5.4l0,7.8l-3.1,0l0,-15.4l3.1,0l0,2.4l0.1,0c0.8,-1.5 2.5,-2.7 4.7,-2.7c4.4,0 5.5,2.9 5.5,6.6l0,9.1z" class="st0"/>
    <path id="svg_30" d="m192.8,51.4l-3,0l0,-2c-0.6,0.7 -2.1,2.3 -4.9,2.3c-2.9,0 -5.3,-1.8 -5.3,-4.8c0,-3 2.5,-4.6 6.1,-4.7l4.1,-0.2l0,-0.6c0,-2.3 -1.6,-3.5 -3.8,-3.5c-2.2,0 -4.1,1 -4.7,1.3l-0.9,-2.1c1.1,-0.7 3.2,-1.6 5.8,-1.6s4.1,0.7 5.1,1.8c1,1.1 1.7,2.4 1.7,5l0,9.1l-0.2,0zm-3.1,-7.4l-3.6,0.2c-2.5,0.1 -3.5,1.2 -3.5,2.7c0,1.5 1.1,2.7 3.2,2.7c2,0 3.4,-1.4 3.9,-2.2l0,-3.4z" class="st0"/>
    <path id="svg_31" d="m211.8,51.4l-3,0l0,-2.4l-0.1,0c-1.3,1.9 -3.2,2.8 -5.4,2.8c-4.6,0 -7.5,-3.5 -7.5,-8.1c0,-4.6 2.9,-8 7.5,-8c2.5,0 4.3,1.1 5.4,2.7l0.1,0l0,-9.4l3.1,0l0,22.4l-0.1,0zm-7.9,-13.2c-3.1,0 -4.9,2.3 -4.9,5.4c0,3.1 1.8,5.5 4.9,5.5c3.1,0 4.9,-2.4 4.9,-5.5c0,-3 -1.8,-5.4 -4.9,-5.4z" class="st0"/>
    <path id="svg_32" d="m228.2,51.4l-3,0l0,-2c-0.6,0.7 -2.1,2.3 -4.9,2.3c-2.9,0 -5.3,-1.8 -5.3,-4.8c0,-3 2.5,-4.6 6.1,-4.7l4.1,-0.2l0,-0.6c0,-2.3 -1.6,-3.5 -3.8,-3.5c-2.2,0 -4.1,1 -4.7,1.3l-0.9,-2.1c1.1,-0.7 3.2,-1.6 5.8,-1.6c2.6,0 4.1,0.7 5.1,1.8c1,1.1 1.7,2.4 1.7,5l0,9.1l-0.2,0zm-3.1,-7.4l-3.6,0.2c-2.5,0.1 -3.5,1.2 -3.5,2.7c0,1.5 1.1,2.7 3.2,2.7c2,0 3.4,-1.4 3.9,-2.2l0,-3.4z" class="st0"/>
    <path id="svg_33" d="m257.5,48.5c-1.4,1.6 -3.9,3.3 -8.2,3.3c-6.5,0 -11.5,-4.6 -11.5,-11.6c0,-7 5,-11.6 11.5,-11.6c4.2,0 6.7,1.8 8,3l-1.3,2.5c-0.9,-1.1 -3.4,-2.7 -6.5,-2.7c-4.8,0 -8.4,3.5 -8.4,8.8c0,5.3 3.5,8.8 8.4,8.8c3,0 5.2,-1.1 6.7,-2.7l1.3,2.2z" class="st0"/>
    <path id="svg_34" d="m267.2,51.8c-4.6,0 -8.2,-3.2 -8.2,-8c0,-4.8 3.6,-8.1 8.2,-8.1c4.6,0 8.2,3.3 8.2,8.1c0,4.8 -3.6,8 -8.2,8zm0,-13.6c-3.1,0 -5,2.4 -5,5.4c0,3.1 1.9,5.5 5,5.5c3.1,0 5,-2.4 5,-5.5c0,-3 -1.9,-5.4 -5,-5.4z" class="st0"/>
    <path id="svg_35" d="m291.7,51.4l-3,0l0,-2.2c-0.8,1.5 -2.6,2.6 -4.8,2.6c-2.2,0 -3.5,-0.7 -4.3,-1.8c-0.8,-1 -1.1,-2.6 -1.1,-4.8l0,-9.2l3.1,0l0,9.1c0,2.1 0.5,4.1 3.2,4.1c2.7,0 3.8,-2.3 3.8,-4.9l0,-8.3l3.1,0l0,15.4z" class="st0"/>
    <path id="svg_36" d="m309.5,51.4l-3.1,0l0,-8.6c0,-2.6 -0.5,-4.6 -3.2,-4.6c-2.9,0 -4,2.4 -4,5.4l0,7.8l-3.2,0l0,-15.4l3.1,0l0,2.4l0.1,0c0.8,-1.5 2.5,-2.7 4.7,-2.7c4.4,0 5.5,2.9 5.5,6.6l0,9.1l0.1,0z" class="st0"/>
    <path id="svg_37" d="m326.6,49.5c-0.5,0.5 -2,2.3 -6.2,2.3c-4.2,0 -7.8,-3.1 -7.8,-8.1c0,-5 3.8,-8 7.9,-8c4.1,0 5.8,2 6,2.2l-1.1,2.3c-0.5,-0.5 -1.9,-1.9 -4.6,-1.9c-2.7,0 -5,2.1 -5,5.3c0,3.3 2,5.5 5,5.5c3,0 4.7,-2 4.7,-2l1.1,2.4z" class="st0"/>
    <path id="svg_38" d="m330.8,32.8c-1.2,0 -2,-0.8 -2,-1.9c0,-1.1 0.8,-1.9 2,-1.9c1.2,0 2,0.8 2,1.9c0,1.1 -0.8,1.9 -2,1.9zm1.6,18.6l-3.1,0l0,-15.4l3.1,0l0,15.4z" class="st0"/>
    <path id="svg_39" d="m340,51.4l-3.1,0l0,-22.4l3.1,0l0,22.4z" class="st0"/>
    <path id="svg_40" d="m133.4,67.9c0,0 -0.9,-0.3 -1.8,-0.3c-2,0 -2.4,1.5 -2.4,3.3l0,1.7l3.7,0l0,2.5l-3.7,0l0,12.9l-3.1,0l0,-12.9l-2.2,0l0,-2.5l2.2,0l0,-1.6c0,-2 0.4,-3.3 1,-4.1c0.7,-0.8 1.9,-1.7 3.7,-1.7c1.8,0 2.7,0.4 2.7,0.4l-0.1,2.3z" class="st0"/>
    <path id="svg_41" d="m141.6,88.4c-4.6,0 -8.2,-3.2 -8.2,-8c0,-4.8 3.6,-8.1 8.2,-8.1c4.6,0 8.2,3.3 8.2,8.1c-0.1,4.8 -3.6,8 -8.2,8zm0,-13.6c-3.1,0 -5,2.4 -5,5.4c0,3.1 1.9,5.5 5,5.5c3.1,0 5,-2.4 5,-5.5c0,-3 -1.9,-5.4 -5,-5.4z" class="st0"/>
    <path id="svg_42" d="m161.4,75.5l-0.1,0c-0.3,-0.1 -0.8,-0.3 -1.7,-0.3c-1.4,0 -2.2,0.9 -2.5,1.3c-0.3,0.4 -0.9,1.6 -0.9,3.9l0,7.7l-3.2,0l0,-15.5l3.1,0l0,2.4l0.1,0c0.7,-1.8 2.1,-2.7 3.8,-2.7c1,0 1.6,0.3 1.6,0.3l-0.2,2.9z" class="st0"/>
    <path id="svg_43" d="m177.9,87.9c0,0 -1.2,0.5 -2.8,0.5c-1.6,0 -2.6,-0.6 -3.3,-1.6c-0.6,-1 -0.8,-2.2 -0.8,-4.6l0,-7.1l-2.3,0l0,-2.5l2.3,0l0,-4.6l3.1,0l0,4.6l3.7,0l0,2.5l-3.7,0l0,7c0,1.3 0,2.2 0.4,2.8c0.3,0.5 0.7,0.8 1.6,0.8c0.9,0 1.6,-0.4 1.6,-0.4l0.2,2.6z" class="st0"/>
    <path id="svg_44" d="m194.1,88l-3.1,0l0,-8.8c0,-2.2 -0.4,-4.4 -3.2,-4.4c-2.8,0 -4,2.4 -4,5.5l0,7.6l-3.1,0l0,-22.4l3.1,0l0,9.4l0.1,0c0.8,-1.5 2.5,-2.7 4.8,-2.7c4.5,0 5.5,2.9 5.5,6.5l0,9.3l-0.1,0z" class="st0"/>
    <path id="svg_45" d="m212.3,81.1l-11.9,0c0.2,3.1 2.1,4.9 5,4.9c2.9,0 4.8,-1.6 5.1,-1.8l1.3,1.8c-0.2,0.2 -2.2,2.4 -6.8,2.4c-4.6,0 -7.7,-3.2 -7.7,-8.1c0,-4.9 3.5,-8 7.8,-8c4.3,0 7.3,3.1 7.3,7.4c0,0.6 -0.1,1.4 -0.1,1.4zm-2.8,-2.1c0,-1.7 -1.3,-4.4 -4.5,-4.4c-3.1,0 -4.5,2.6 -4.6,4.4l9.1,0z" class="st0"/>
    <path id="svg_46" d="m241,88l-3.5,0l-2.3,-5.9l-9.6,0l-2.3,5.9l-3.3,0l9.1,-22.5l2.8,0l9.1,22.5zm-6.7,-8.4l-3.9,-10.1l-3.9,10.1l7.8,0z" class="st0"/>
    <path id="svg_47" d="m251.6,75.5l-0.1,0c-0.3,-0.1 -0.8,-0.3 -1.7,-0.3c-1.4,0 -2.2,0.9 -2.5,1.3c-0.3,0.4 -0.9,1.6 -0.9,3.9l0,7.7l-3.1,0l0,-15.5l3.1,0l0,2.4l0.1,0c0.7,-1.8 2.1,-2.7 3.8,-2.7c1,0 1.6,0.3 1.6,0.3l-0.3,2.9z" class="st0"/>
    <path id="svg_48" d="m261.6,87.9c0,0 -1.2,0.5 -2.8,0.5c-1.6,0 -2.6,-0.6 -3.3,-1.6c-0.6,-1 -0.8,-2.2 -0.8,-4.6l0,-7.1l-2.3,0l0,-2.5l2.3,0l0,-4.6l3.1,0l0,4.6l3.7,0l0,2.5l-3.7,0l0,7c0,1.3 0,2.2 0.4,2.8c0.3,0.5 0.7,0.8 1.6,0.8c0.9,0 1.6,-0.4 1.6,-0.4l0.2,2.6z" class="st0"/>
    <path id="svg_49" d="m273,87c-1.1,0.9 -2.5,1.4 -4.3,1.4c-2.6,0 -4.7,-1.1 -6,-2.8l1.5,-1.8c1.2,1.4 3.1,2.2 4.6,2.2c1.4,0 3,-0.5 3,-2.2c0,-1.7 -2.4,-2.2 -3.5,-2.6c-1,-0.4 -1.4,-0.4 -2.1,-0.8c-1,-0.5 -2.4,-1.5 -2.4,-3.7c0,-2.9 2.5,-4.4 5.2,-4.4c2.7,0 4.3,1 5.3,2l-1.3,1.9c-0.9,-0.9 -2.4,-1.7 -3.9,-1.7c-1.5,0 -2.5,0.6 -2.5,1.9c0,1.3 1.5,1.8 3,2.3c0.8,0.3 1.4,0.5 2.1,0.7c0.6,0.3 1.3,0.7 1.8,1.1c0.6,0.6 1.2,1.5 1.2,2.9c-0.1,1.6 -0.7,2.8 -1.7,3.6z" class="st0"/>
   </g>
  </g>
  <g id="svg_50">
   <path id="svg_51" d="m99,88.9c-5,-4.9 -19.5,-9.1 -34.4,-10c-1.1,0.8 -1.8,1.7 -2.2,2.6c12.5,0.6 24.6,4.1 29,8.1c4,3.2 3.4,7.6 -1.3,10.6c-6.8,4.8 -20.9,7 -36.2,6.9c-15.3,0.1 -29.4,-2.1 -36.2,-6.9c-4.7,-3 -5.3,-7.4 -1.2,-10.6c4.5,-4 16.5,-7.6 29,-8.1c-0.4,-0.9 -1.2,-1.7 -2.2,-2.6c-14.9,0.9 -29.3,5.1 -34.4,10c-6.8,6.2 -1.4,13.2 13.5,17.6c8.3,2.5 20,3.9 31.5,3.9c11.5,0 23.2,-1.4 31.5,-3.9c14.9,-4.4 20.4,-11.4 13.6,-17.6z" class="st1"/>
   <path id="svg_52" d="m91,38.3c-0.3,-4.1 -3.6,-7.3 -7.6,-8.8c1.6,-2.3 1.9,-4.8 0.7,-7.6c-1.9,-4.4 -7,-5.8 -10.1,-5.6c-4.3,0.3 -6.9,2.1 -11.5,5.6c-1.1,-0.8 -3.2,-2.4 -4.2,-3.2l0,0c0,0 3.1,-2.6 6.4,-4.3c3.1,-1.7 5.2,-1.9 5.2,-1.9s-5.5,-7.5 -16.1,-7.6c0,0 0,0 0,0c0,0 0,0 0,0s0,0 0,0c0,0 0,0 0,0c-10.6,0.1 -16.1,7.6 -16.1,7.6s2.1,0.2 5.2,1.9c3.3,1.7 6.4,4.3 6.4,4.3c-0.9,0.7 -3.1,2.3 -4.2,3.2c-4.6,-3.5 -7.2,-5.3 -11.5,-5.6c-3.1,-0.2 -8.2,1.2 -10.1,5.6c-1.2,2.8 -0.9,5.3 0.7,7.6c-4,1.5 -7.3,4.7 -7.6,8.8c-0.3,4.1 2.1,7.9 6.4,9.7c-1.2,1.5 -1.8,3.3 -1.8,4.8c0,4 3.6,9.4 11.2,9.2c5.7,-0.2 7.9,-1.9 12.4,-5.4c0.3,0.4 3.7,5.9 3.7,15.4c0,0 0.5,7.3 -3.1,25.1l0,0c0,1 3.7,1.7 8.3,1.7c4.6,0 8.3,-0.8 8.3,-1.7l0,0c-3.6,-17.8 -3.1,-25.1 -3.1,-25.1c0,-9.6 3.5,-15 3.7,-15.4c4.5,3.5 6.7,5.2 12.4,5.4c7.6,0.2 11.2,-5.2 11.2,-9.2c0,-1.5 -0.6,-3.2 -1.8,-4.8c4.5,-1.8 6.9,-5.6 6.6,-9.7zm-17.1,-16.3c4,-0.2 5.5,2.2 5.2,3.8c-0.4,2 -2.9,3.5 -5.2,3.2c-2.3,-0.2 -4,-1.4 -6.7,-3.6c1.8,-1.4 4.1,-3.2 6.7,-3.4zm-11.2,6.9c1.3,1 2.5,1.9 3.5,2.6c0.5,0.4 1,0.8 1.5,1.1c-0.7,0.5 -1.2,0.9 -2,1.5c-0.6,0.4 -1.4,1.1 -2.3,1.7c-1.4,-1 -3,-2.3 -4.9,-3.7c1.3,-1 2.6,-2.1 4.2,-3.2zm-4.6,-3.5c-1.3,1 -2.5,1.9 -4.1,3.2l0,0l0,0c-1.6,-1.2 -2.8,-2.2 -4.1,-3.2c1,-0.8 2.3,-1.8 4,-3.1l0.1,-0.1l0.1,0.1c1.7,1.3 2.9,2.3 4,3.1zm-9.9,-13.9c0,0 1.4,-1.6 5.6,-1.6c4.2,0 5.6,1.6 5.6,1.6s-1.1,0.6 -2.6,1.7c-2,1.4 -2.9,2.2 -3,2.2c-0.1,-0.1 -1,-0.9 -3,-2.2c-1.5,-1.1 -2.6,-1.7 -2.6,-1.7zm5.5,24.2l0.2,-0.2l0.2,0.2c1.5,1.2 3.1,2.3 4.8,3.6c-1,0.7 -1.8,1.3 -2.5,1.9c-0.7,0.5 -1.5,1.1 -2.3,1.7l-0.1,0.1l-0.1,-0.1c-0.8,-0.6 -1.6,-1.2 -2.3,-1.7c-0.7,-0.5 -1.5,-1.2 -2.5,-1.9c1.5,-1.3 3.1,-2.4 4.6,-3.6zm-8.6,-6.8c1.5,1.1 2.9,2.2 4.2,3.2c-1.9,1.5 -3.6,2.7 -5,3.7c-0.8,-0.6 -1.7,-1.3 -2.3,-1.7c-0.8,-0.6 -1.3,-1 -2,-1.5c0.5,-0.3 1,-0.7 1.5,-1.1c1.1,-0.7 2.4,-1.7 3.6,-2.6zm-11.2,-6.9c2.6,0.1 4.9,2 6.7,3.4c-2.8,2.2 -4.5,3.4 -6.7,3.6c-2.3,0.3 -4.8,-1.2 -5.2,-3.2c-0.3,-1.6 1.2,-4 5.2,-3.8zm-11.6,17.4c-0.1,-2.1 1.4,-5.1 7,-5.4c3.8,-0.2 6.4,2 10.6,5.1c-3.3,2.5 -5.9,4.7 -10.7,5c-3.8,0.3 -6.8,-2.5 -6.9,-4.7zm10.7,17.3c-4,0.2 -6.4,-1.8 -6.2,-4c0.1,-1.7 3.9,-5.7 11.8,-2.2c1.1,0.5 2,1.1 2.9,1.8c-3.9,3 -5.4,4.3 -8.5,4.4zm12.8,-7.6c-1.5,-1.4 -3.1,-2.6 -5.2,-3.6c1.3,-0.8 2.5,-1.8 3.8,-2.8c0.1,-0.1 0.1,-0.1 0.1,-0.1c1.8,1.3 3.5,2.6 5,3.7c-1.3,1 -2.5,1.9 -3.7,2.8zm8.2,15l-0.1,0.5l-0.1,-0.5c-1,-4.1 -2.2,-7.7 -4,-10.4c1.4,-1.1 2.7,-2.1 4.1,-3.1c1.3,1 2.6,2 4.1,3.1c-1.7,2.7 -3,6.3 -4,10.4zm8,-15c-1.2,-0.9 -2.4,-1.8 -3.7,-2.8c1.5,-1.1 3.2,-2.4 4.9,-3.7c0.1,0 0.1,0 0.1,0.1c1.3,1.1 2.5,2 3.8,2.8c-2,1 -3.6,2.2 -5.1,3.6zm12.8,7.6c-3.1,-0.1 -4.5,-1.4 -8.5,-4.3c0.9,-0.8 1.8,-1.3 2.9,-1.8c7.9,-3.6 11.7,0.4 11.8,2.2c0.2,2.1 -2.2,4.1 -6.2,3.9zm3.8,-12.5c-4.8,-0.3 -7.3,-2.5 -10.7,-5c4.1,-3.1 6.8,-5.3 10.6,-5.1c5.6,0.3 7.1,3.3 7,5.4c-0.1,2.1 -3.1,4.9 -6.9,4.7z" class="st1"/>
  </g>
 </g>
</svg>